<svg width="76" height="19" viewBox="0 0 76 19" fill="none" xmlns="http://www.w3.org/2000/svg">
<path d="M57 19L76 0H64.5644L45.5648 19H57ZM54.2759 8.2745H31.2752C24.2654 8.2745 23.0387 8.64619 20.0363 11.6486C17.2282 14.4566 12.6671 19 12.6671 19H22.6306L25.0076 16.623C26.5703 15.0603 27.3762 14.8984 30.6577 14.8984H47.6524L54.2759 8.2745ZM19.7295 10.2936C17.6558 12.2502 13.1436 16.6333 10.7116 19H0C0 19 8.58325 10.4417 13.3538 5.74592C18.2689 1.06717 20.7191 0 29.7342 0H62.5508L55.4452 7.10521H30.4008C24.0663 7.10521 22.6429 7.54419 19.7295 10.2936Z" fill="white"/>
</svg>
