<svg width="35" height="24" viewBox="0 0 35 24" fill="none" xmlns="http://www.w3.org/2000/svg">
<g clip-path="url(#clip0_419_2403)">
<path d="M2.12898 0.0672607H32.3114C33.4455 0.0672607 34.3732 0.994865 34.3732 2.12898V21.871C34.3732 23.0051 33.4455 23.9327 32.3114 23.9327H2.12898C0.994865 23.9327 0.0672607 23.0051 0.0672607 21.871V2.12898C0.0672607 0.994865 0.994865 0.0672607 2.12898 0.0672607Z" fill="white"/>
<path d="M34.3732 12.0501H0.0672607V2.12898C0.0672607 0.994865 0.994865 0.0672607 2.12898 0.0672607H32.3114C33.4455 0.0672607 34.3732 0.994865 34.3732 2.12898V12.0501Z" fill="#CE1126"/>
<path d="M2.12898 0H32.3114C32.8967 0 33.4294 0.239469 33.8148 0.625578C34.201 1.01101 34.4404 1.54377 34.4404 2.12898V21.871C34.4404 22.4562 34.201 22.9883 33.8148 23.3744C33.4294 23.7605 32.8967 24 32.3114 24H2.12898C1.54377 24 1.01101 23.7605 0.625578 23.3744C0.239469 22.9883 0 22.4562 0 21.871V2.12898C0 1.54377 0.239469 1.01101 0.625578 0.625578C1.01101 0.239469 1.54377 0 2.12898 0ZM32.3114 0.13386H2.12898C1.58009 0.13386 1.08164 0.35853 0.719751 0.719751C0.35853 1.08164 0.13386 1.58009 0.13386 2.12898V21.871C0.13386 22.4192 0.35853 22.9184 0.719751 23.2796C1.08164 23.6415 1.58009 23.8655 2.12898 23.8655H32.3114C32.8603 23.8655 33.3588 23.6415 33.7207 23.2796C34.0819 22.9184 34.3066 22.4192 34.3066 21.871V2.12898C34.3066 1.58009 34.0819 1.08164 33.7207 0.719751C33.3588 0.35853 32.8603 0.13386 32.3114 0.13386Z" fill="#CCCCCC"/>
</g>
<defs>
<clipPath id="clip0_419_2403">
<rect width="34.4404" height="24" fill="white"/>
</clipPath>
</defs>
</svg>
