<svg width="142" height="32" viewBox="0 0 142 32" fill="none" xmlns="http://www.w3.org/2000/svg">
<path d="M98.7906 26.3788C96.1062 28.9321 92.3848 31.2597 88.6672 31.7963C86.111 32.2244 82.7491 31.9946 80.6555 30.2845C74.8295 25.5239 78.1164 16.8884 81.9488 12.0268C85.8461 7.08261 90.0005 3.74518 95.7616 1.34105C101.536 -1.06877 108.98 -0.87742 106.938 7.38257C105.816 11.771 100.89 16.2279 96.4227 16.9699C94.5917 17.2739 92.069 16.2858 91.9487 14.0964C91.7776 10.6928 95.2794 8.05742 98.3248 7.43367C98.5491 7.38828 98.6773 7.47508 98.8234 7.60565C98.8445 7.88256 98.7414 7.8992 98.4882 8.0339C98.1482 8.21494 97.7645 8.32964 97.4074 8.47442C95.2974 9.33101 93.0232 12.8851 95.3958 14.6646C96.1945 15.1997 97.4097 15.2642 98.3084 15.0442C105.537 13.2763 108.349 -0.147955 97.7192 2.07935C92.8107 3.02587 88.6047 7.07183 85.9086 11.1322C83.2375 15.1556 79.4996 24.2393 84.8176 27.6457C85.4428 28.0464 86.3478 28.4176 87.0925 28.5219C91.7158 29.1698 96.1773 27.3342 99.6276 24.3324C100.393 23.6617 101.463 21.876 102.052 20.9991L105.053 16.5792C106.527 14.4475 107.983 12.3034 109.422 10.1471C110.096 9.1567 110.785 8.15774 111.466 7.17106C111.913 6.52458 112.149 5.40655 112.541 4.79101C113.122 4.47581 115.812 4.36502 116.608 4.35228C116.595 4.76163 116.634 5.29427 116.478 5.6751C115.85 7.20622 114.373 9.01277 113.411 10.4044C110.402 14.759 107.339 19.074 104.458 23.5149C103.533 24.9406 102.302 26.4975 101.707 28.0834C101.57 28.4479 101.326 29.1083 101.52 29.4753C101.611 29.6449 101.749 29.7255 101.927 29.779C104.617 30.5867 108.985 23.3739 110.257 21.4927C110.977 20.4255 111.857 19.3735 112.487 18.2571C112.773 17.7496 112.847 16.5538 113.366 16.2848C113.584 16.1716 116.304 15.9313 116.556 16.0291C116.689 16.0807 116.737 16.1439 116.787 16.2786C117.373 17.8463 111.948 24.5947 110.851 26.2014C110.484 26.7477 110.159 27.3214 109.879 27.9174C109.654 28.3915 109.348 29.0844 109.551 29.6078C109.62 29.7849 109.749 29.9083 109.925 29.9775C110.342 30.1418 110.864 29.9912 111.256 29.8255C114.11 28.6202 119.245 21.4432 120.82 18.5897C121.265 17.7832 121.543 16.913 121.887 16.0615C123.14 15.934 124.627 15.8777 125.889 15.8411C125.839 16.2213 125.696 17.1755 125.517 17.4466C123.706 20.2096 121.537 23.054 119.768 25.8095C118.336 28.0405 117.068 31.9361 121.095 29.1277C121.801 28.6348 123.659 26.8321 124.112 26.0868C124.979 24.6596 125.488 22.946 126.484 21.5594C129.814 16.5826 133.385 11.7532 136.585 6.69272C136.997 6.03796 137.095 5.54094 137.069 4.7846C138.346 4.72748 139.859 4.38174 141.102 4.44721C141.232 4.45409 141.246 4.53293 141.314 4.6456C141.393 6.08593 139.001 9.20459 138.152 10.4479L133.579 17.1674C133.255 17.6048 132.964 18.0299 132.659 18.4813C133.211 18.119 133.516 17.8926 134.021 17.4676L134.355 17.2239C136.136 15.9409 138.542 14.7858 140.27 17.093C140.863 17.8845 140.944 19.1077 140.785 20.0725C140.176 23.7409 137.484 26.9054 134.554 29.0533C132.527 30.4354 129.312 32.007 126.776 31.6347C124.224 31.2602 123.758 28.9351 124.144 26.7673C122.469 28.4984 119.959 31.4014 117.325 31.7459C116.772 31.8182 116.197 31.5459 115.775 31.1759C114.233 29.8247 115.997 27.3553 115.953 26.4191C115.667 26.4526 115.006 27.2263 114.766 27.4764C113.465 28.8361 112.28 29.9643 110.636 30.9497C109.219 31.7988 107.421 32.2926 106.368 30.5524C105.82 29.6478 106.175 28.5293 106.443 27.5671C105.087 29.0561 99.8136 34.1778 98.0607 30.0804C97.641 29.098 98.2889 27.3081 98.7906 26.3788ZM128.446 31.0507C132.354 29.5803 137.039 22.0284 137.748 17.9285C137.46 17.054 137.057 16.6071 136.053 16.8974C132.945 17.7328 129.578 22.834 127.895 25.4896C127.136 26.6872 126.39 28.805 126.69 30.2465C126.841 30.9761 127.802 31.1967 128.446 31.0507Z" fill="black"/>
<path d="M9.81697 5.27375C13.0476 5.12787 15.6056 5.42095 18.2201 7.58395C20.2278 9.24509 21.3247 11.7063 21.5637 14.2656C20.2647 14.3871 18.9521 14.331 17.6376 14.3459C17.0131 10.8593 15.2552 8.91755 11.567 8.78543C5.95417 8.53704 4.33493 13.3482 4.16941 18.1078C4.00225 22.9151 5.35313 28.357 11.1937 28.4819C13.0673 28.522 14.4291 27.9008 15.776 26.6113C16.6298 25.6647 17.1663 24.5284 17.3835 23.3066C17.4225 23.0869 17.6147 22.5694 17.7859 22.5402C18.2987 22.453 21.0343 22.4202 21.3643 22.5188C21.4366 22.5972 21.5152 22.6523 21.5049 22.7557C21.2651 24.7164 20.2297 26.7428 19.0707 28.2942C15.8343 32.6261 8.56761 33.2297 4.41355 29.7375C-2.81717 23.659 -1.26391 6.3231 9.81697 5.27375Z" fill="black"/>
<path d="M66.8842 12.0626C72.792 11.5321 75.9774 15.5546 76.2204 21.0982C76.2438 21.6328 76.3579 22.1269 76.1899 22.6569C75.6468 23.0629 65.4451 22.6859 63.8394 22.8288C63.7094 22.8404 63.1533 22.811 62.9919 22.804C63.2419 25.5405 64.2061 28.3791 67.4676 28.5488C70.2498 28.6935 70.9837 27.7974 72.3223 25.5577L73.3062 25.5549L76.1102 25.5643C75.603 26.7099 75.3826 27.4664 74.6223 28.5417C72.0105 32.235 66.0199 32.5501 62.5531 29.9735C58.4989 26.9604 58.3284 18.8693 61.1887 14.9854C62.6326 13.0249 64.5703 12.3943 66.8842 12.0626ZM63.0341 20.4143C63.6557 20.2769 67.7644 20.3624 68.6525 20.3573C69.9271 20.3561 71.3205 20.3289 72.5841 20.3907C72.3263 19.052 72.1231 17.7484 71.2345 16.6536C70.2256 15.4121 68.9005 14.9561 67.3281 15.1033C64.2029 15.536 63.5472 17.7042 63.0341 20.4143Z" fill="black"/>
<path d="M44.6018 12.0585C48.7211 11.6619 52.7434 13.7959 53.4898 18.1306C53.5406 18.4261 53.6582 18.9024 53.4834 19.1601C52.7896 19.2659 50.7499 19.2673 50.094 19.1623C49.9138 19.1334 49.2 16.6677 48.0233 15.9432C46.9233 15.2576 45.5925 15.0467 44.3344 15.3586C40.2318 16.3363 40.3849 23.113 41.8396 26.0961C43.4053 29.3069 47.5004 29.1345 49.2782 26.1144C49.4601 25.8035 49.7753 24.8751 49.9019 24.5174C50.6047 24.3402 52.5356 24.4593 53.5241 24.3337C52.8692 30.6974 45.6966 33.717 40.5792 30.1248C36.4713 27.2413 36.1888 18.616 39.0658 14.8164C40.4981 12.9249 42.339 12.3954 44.6018 12.0585Z" fill="black"/>
<path d="M57.1264 5.74516L58.1828 5.69336C58.3269 11.6906 58.1455 17.7459 58.2037 23.7491C58.2276 26.207 58.2576 28.7159 58.2089 31.1709L55.3284 31.1765L54.491 31.1698C54.3794 30.0393 54.4101 28.4915 54.4077 27.3374L54.4019 21.4023L54.414 12.5837C54.4139 11.637 54.3387 6.33477 54.5712 5.90971C55.0179 5.67508 56.5571 5.74399 57.1264 5.74516Z" fill="black"/>
<path d="M37.5265 11.9941C37.7038 12.003 37.7304 12.0042 37.8921 12.0761C38.2029 12.5066 38.0714 15.1688 38.0622 15.8952C36.2926 15.8352 34.4781 15.7196 33.0903 17.0119C32.3122 17.7168 31.6211 18.9629 31.531 20.0214C31.2189 23.6868 31.5991 27.4655 31.416 31.1338C30.3335 31.2243 28.8156 31.1751 27.6983 31.1685C27.6264 30.1775 27.6288 29.2602 27.6266 28.2663L27.6225 18.2023C27.6225 16.6484 27.5485 13.9468 27.7159 12.4797C28.5657 12.422 30.2559 12.4587 31.1145 12.4801C31.2389 13.4474 31.1241 14.8278 31.1112 15.859C32.6529 12.9454 34.1993 12.067 37.5265 11.9941Z" fill="black"/>
<path d="M22.4056 12.4487C23.5246 12.5263 24.9268 12.4645 26.0446 12.416C25.9355 16.8589 26.1177 21.4988 26.0286 25.9533C26.006 27.0835 26.1477 30.2292 25.9975 31.1676C24.7784 31.1807 23.5591 31.1803 22.34 31.1664C22.241 30.2008 22.2782 28.5938 22.2766 27.5865L22.2742 21.5112C22.2753 20.2307 22.1592 13.2724 22.4056 12.4487Z" fill="black"/>
<path d="M22.9587 5.73337C23.9728 5.7443 24.9871 5.72907 26.0004 5.6875C26.0454 6.24897 26.0887 9.84184 26.0103 10.2531C25.8154 10.4164 25.5063 10.3724 25.2411 10.3678C24.2706 10.3596 23.3 10.3589 22.3295 10.3657C22.2833 9.55977 22.1965 6.58042 22.383 5.91862C22.5949 5.72321 22.6124 5.7797 22.9587 5.73337Z" fill="black"/>
</svg>
