<svg width="142" height="32" viewBox="0 0 142 32" fill="none" xmlns="http://www.w3.org/2000/svg">
<path d="M98.7905 26.3788C96.1061 28.9321 92.3846 31.2597 88.6671 31.7963C86.1109 32.2244 82.7489 31.9946 80.6553 30.2845C74.8294 25.5239 78.1163 16.8884 81.9487 12.0268C85.846 7.08261 90.0003 3.74518 95.7614 1.34105C101.536 -1.06877 108.98 -0.87742 106.937 7.38257C105.816 11.771 100.89 16.2279 96.4226 16.9699C94.5916 17.2739 92.0689 16.2858 91.9486 14.0964C91.7774 10.6928 95.2793 8.05742 98.3247 7.43367C98.549 7.38828 98.6772 7.47508 98.8233 7.60565C98.8444 7.88256 98.7413 7.8992 98.4881 8.0339C98.1481 8.21494 97.7644 8.32964 97.4073 8.47442C95.2972 9.33101 93.0231 12.8851 95.3957 14.6646C96.1944 15.1997 97.4096 15.2642 98.3083 15.0442C105.537 13.2763 108.349 -0.147955 97.7191 2.07935C92.8106 3.02587 88.6046 7.07183 85.9085 11.1322C83.2374 15.1556 79.4995 24.2393 84.8175 27.6457C85.4427 28.0464 86.3477 28.4176 87.0924 28.5219C91.7157 29.1698 96.1772 27.3342 99.6275 24.3324C100.393 23.6617 101.462 21.876 102.052 20.9991L105.053 16.5792C106.527 14.4475 107.983 12.3034 109.422 10.1471C110.096 9.1567 110.785 8.15774 111.466 7.17106C111.913 6.52458 112.148 5.40655 112.541 4.79101C113.122 4.47581 115.812 4.36502 116.608 4.35228C116.595 4.76163 116.634 5.29427 116.478 5.6751C115.85 7.20622 114.373 9.01277 113.411 10.4044C110.402 14.759 107.339 19.074 104.458 23.5149C103.533 24.9406 102.302 26.4975 101.707 28.0834C101.57 28.4479 101.326 29.1083 101.52 29.4753C101.611 29.6449 101.748 29.7255 101.927 29.779C104.617 30.5867 108.985 23.3739 110.256 21.4927C110.977 20.4255 111.857 19.3735 112.487 18.2571C112.773 17.7496 112.847 16.5538 113.366 16.2848C113.584 16.1716 116.304 15.9313 116.556 16.0291C116.689 16.0807 116.737 16.1439 116.787 16.2786C117.373 17.8463 111.948 24.5947 110.851 26.2014C110.484 26.7477 110.159 27.3214 109.879 27.9174C109.654 28.3915 109.348 29.0844 109.551 29.6078C109.62 29.7849 109.749 29.9083 109.925 29.9775C110.342 30.1418 110.864 29.9912 111.256 29.8255C114.11 28.6202 119.245 21.4432 120.82 18.5897C121.265 17.7832 121.543 16.913 121.887 16.0615C123.14 15.934 124.626 15.8777 125.888 15.8411C125.838 16.2213 125.695 17.1755 125.517 17.4466C123.706 20.2096 121.536 23.054 119.768 25.8095C118.336 28.0405 117.068 31.9361 121.095 29.1277C121.801 28.6348 123.659 26.8321 124.112 26.0868C124.979 24.6596 125.488 22.946 126.484 21.5594C129.814 16.5826 133.385 11.7532 136.585 6.69272C136.997 6.03796 137.095 5.54094 137.068 4.7846C138.346 4.72748 139.859 4.38174 141.102 4.44721C141.232 4.45409 141.245 4.53293 141.313 4.6456C141.393 6.08593 139.001 9.20459 138.152 10.4479L133.579 17.1674C133.255 17.6048 132.964 18.0299 132.659 18.4813C133.211 18.119 133.516 17.8926 134.021 17.4676L134.355 17.2239C136.136 15.9409 138.542 14.7858 140.269 17.093C140.863 17.8845 140.944 19.1077 140.784 20.0725C140.176 23.7409 137.483 26.9054 134.554 29.0533C132.526 30.4354 129.311 32.007 126.775 31.6347C124.224 31.2602 123.758 28.9351 124.144 26.7673C122.469 28.4984 119.959 31.4014 117.325 31.7459C116.772 31.8182 116.197 31.5459 115.775 31.1759C114.233 29.8247 115.997 27.3553 115.953 26.4191C115.667 26.4526 115.006 27.2263 114.766 27.4764C113.464 28.8361 112.28 29.9643 110.635 30.9497C109.219 31.7988 107.42 32.2926 106.368 30.5524C105.82 29.6478 106.175 28.5293 106.443 27.5671C105.087 29.0561 99.8135 34.1778 98.0606 30.0804C97.6409 29.098 98.2888 27.3081 98.7905 26.3788ZM128.446 31.0507C132.354 29.5803 137.039 22.0284 137.748 17.9285C137.46 17.054 137.057 16.6071 136.052 16.8974C132.945 17.7328 129.578 22.834 127.895 25.4896C127.136 26.6872 126.39 28.805 126.69 30.2465C126.841 30.9761 127.802 31.1967 128.446 31.0507Z" fill="#FEFEFE"/>
<path d="M9.81697 5.27381C13.0476 5.12793 15.6056 5.42101 18.2201 7.58401C20.2278 9.24515 21.3247 11.7063 21.5637 14.2657C20.2647 14.3872 18.9521 14.3311 17.6376 14.3459C17.0131 10.8593 15.2552 8.91761 11.567 8.78549C5.95417 8.5371 4.33493 13.3483 4.16941 18.1079C4.00225 22.9152 5.35313 28.357 11.1937 28.482C13.0673 28.522 14.4291 27.9009 15.776 26.6113C16.6298 25.6647 17.1663 24.5284 17.3835 23.3066C17.4225 23.087 17.6147 22.5694 17.7859 22.5403C18.2987 22.453 21.0343 22.4203 21.3643 22.5189C21.4366 22.5973 21.5152 22.6523 21.5049 22.7558C21.2651 24.7165 20.2297 26.7429 19.0707 28.2943C15.8343 32.6261 8.56761 33.2297 4.41355 29.7376C-2.81717 23.6591 -1.26391 6.32316 9.81697 5.27381Z" fill="#FEFEFE"/>
<path d="M66.8841 12.0629C72.7919 11.5323 75.9772 15.5548 76.2203 21.0985C76.2437 21.633 76.3578 22.1271 76.1898 22.6572C75.6467 23.0632 65.445 22.6862 63.8393 22.8291C63.7092 22.8407 63.1531 22.8113 62.9918 22.8042C63.2418 25.5407 64.206 28.3793 67.4675 28.549C70.2497 28.6937 70.9835 27.7977 72.3222 25.5579L73.3061 25.5551L76.1101 25.5645C75.6029 26.7101 75.3825 27.4667 74.6221 28.542C72.0104 32.2352 66.0198 32.5504 62.553 29.9738C58.4988 26.9607 58.3282 18.8695 61.1886 14.9856C62.6324 13.0252 64.5702 12.3945 66.8841 12.0629ZM63.034 20.4146C63.6556 20.2771 67.7643 20.3627 68.6524 20.3575C69.927 20.3564 71.3204 20.3291 72.584 20.3909C72.3261 19.0522 72.1229 17.7486 71.2344 16.6539C70.2255 15.4123 68.9004 14.9563 67.328 15.1035C64.2028 15.5362 63.5471 17.7044 63.034 20.4146Z" fill="#FEFEFE"/>
<path d="M44.6018 12.0581C48.7211 11.6615 52.7434 13.7955 53.4898 18.1302C53.5406 18.4257 53.6582 18.902 53.4834 19.1597C52.7896 19.2654 50.7499 19.2669 50.094 19.1618C49.9138 19.133 49.2 16.6673 48.0233 15.9428C46.9233 15.2571 45.5925 15.0462 44.3344 15.3582C40.2318 16.3359 40.3849 23.1126 41.8396 26.0957C43.4053 29.3065 47.5004 29.1341 49.2782 26.1139C49.4601 25.8031 49.7753 24.8746 49.9019 24.517C50.6047 24.3397 52.5356 24.4589 53.5241 24.3333C52.8692 30.697 45.6966 33.7166 40.5792 30.1244C36.4713 27.2409 36.1888 18.6156 39.0658 14.816C40.4981 12.9244 42.339 12.395 44.6018 12.0581Z" fill="#FEFEFE"/>
<path d="M57.1262 5.74547L58.1827 5.69366C58.3268 11.6909 58.1454 17.7462 58.2036 23.7494C58.2275 26.2073 58.2574 28.7162 58.2087 31.1712L55.3283 31.1768L54.4909 31.1701C54.3793 30.0396 54.4099 28.4918 54.4076 27.3377L54.4017 21.4026L54.4139 12.584C54.4138 11.6373 54.3386 6.33507 54.5711 5.91002C55.0178 5.67538 56.557 5.7443 57.1262 5.74547Z" fill="#FEFEFE"/>
<path d="M37.5263 11.9944C37.7036 12.0033 37.7303 12.0045 37.892 12.0763C38.2028 12.5069 38.0713 15.1691 38.0621 15.8954C36.2924 15.8355 34.478 15.7198 33.0902 17.0122C32.3121 17.717 31.621 18.9631 31.5309 20.0217C31.2188 23.6871 31.599 27.4657 31.4159 31.1341C30.3334 31.2245 28.8155 31.1754 27.6981 31.1688C27.6262 30.1778 27.6287 29.2605 27.6265 28.2665L27.6224 18.2026C27.6223 16.6486 27.5484 13.947 27.7158 12.4799C28.5656 12.4222 30.2558 12.4589 31.1144 12.4804C31.2387 13.4477 31.124 14.8281 31.111 15.8592C32.6528 12.9457 34.1992 12.0672 37.5263 11.9944Z" fill="#FEFEFE"/>
<path d="M22.4055 12.4487C23.5245 12.5263 24.9267 12.4646 26.0445 12.4161C25.9354 16.859 26.1175 21.4988 26.0285 25.9534C26.0059 27.0836 26.1476 30.2293 25.9974 31.1677C24.7782 31.1808 23.559 31.1804 22.3398 31.1665C22.2409 30.2008 22.2781 28.5938 22.2765 27.5866L22.274 21.5113C22.2751 20.2308 22.1591 13.2724 22.4055 12.4487Z" fill="#FEFEFE"/>
<path d="M22.9586 5.73288C23.9727 5.74382 24.9869 5.72858 26.0003 5.68701C26.0453 6.24849 26.0886 9.84135 26.0102 10.2526C25.8152 10.4159 25.5062 10.3719 25.241 10.3673C24.2705 10.3591 23.2999 10.3584 22.3293 10.3652C22.2832 9.55928 22.1964 6.57993 22.3829 5.91813C22.5947 5.72272 22.6122 5.77921 22.9586 5.73288Z" fill="#FEFEFE"/>
</svg>
