<svg width="32" height="32" viewBox="0 0 32 32" fill="none" xmlns="http://www.w3.org/2000/svg">
<g clip-path="url(#clip0_419_2308)">
<path d="M0 32L2.20688 24C0.772438 21.5173 0 18.7586 0 15.8896C0 7.17244 7.17244 0 15.9448 0C24.7172 0 32 7.17244 32 15.8896C32 24.6068 24.7173 32 15.9448 32C13.1862 32 10.5379 31.1173 8.1655 29.7931L0 32Z" fill="#EDEDED"/>
<path d="M8.60689 26.9241L9.10345 27.2C11.1448 28.4689 13.5173 29.2414 16 29.2414C23.2276 29.2414 29.2414 23.2276 29.2414 15.8896C29.2414 8.55168 23.2276 2.75862 15.9448 2.75862C8.66207 2.75862 2.75864 8.60687 2.75864 15.8896C2.75864 18.4276 3.47589 20.9103 4.80001 23.0069L5.13107 23.5034L3.86214 28.1379L8.60689 26.9241Z" fill="#55CD6C"/>
<path d="M11.6966 8.49656L10.6483 8.44138C10.3173 8.44138 9.98626 8.55175 9.76557 8.77244C9.26901 9.21381 8.44144 10.0414 8.22076 11.1449C7.83457 12.8001 8.44144 14.7863 9.87594 16.7724C11.3104 18.7586 14.0691 21.9586 18.9242 23.3379C20.469 23.7793 21.6828 23.5034 22.6759 22.8966C23.4484 22.4 23.9449 21.6276 24.1104 20.8L24.2759 20.0276C24.3311 19.8069 24.2208 19.531 24.0001 19.4207L20.5242 17.8207C20.3035 17.7103 20.0276 17.7655 19.8621 17.9862L18.4828 19.7517C18.3724 19.8621 18.2069 19.9172 18.0414 19.8621C17.1035 19.531 13.9587 18.2069 12.2483 14.8966C12.1931 14.7311 12.1931 14.5655 12.3035 14.4552L13.6276 12.9656C13.738 12.8001 13.7931 12.5794 13.738 12.4138L12.138 8.82763C12.0828 8.66206 11.9173 8.49656 11.6966 8.49656Z" fill="#FEFEFE"/>
</g>
<defs>
<clipPath id="clip0_419_2308">
<rect width="32" height="32" fill="white"/>
</clipPath>
</defs>
</svg>
