<svg width="23" height="20" viewBox="0 0 23 20" fill="none" xmlns="http://www.w3.org/2000/svg">
<path d="M1.07827 11.0381C1.14364 14.1037 1.17633 15.6364 2.30746 16.7719C3.43858 17.9073 5.01283 17.9468 8.16133 18.0259C10.1018 18.0747 12.0232 18.0747 13.9637 18.0259C17.1122 17.9468 18.6864 17.9073 19.8176 16.7719C20.9487 15.6364 20.9814 14.1037 21.0467 11.0381C21.0678 10.0524 21.0678 9.07258 21.0467 8.08689C20.9814 5.02136 20.9487 3.48859 19.8176 2.35316C18.6864 1.21773 17.1122 1.17818 13.9637 1.09907C12.0232 1.05031 10.1018 1.05031 8.16132 1.09906C5.01283 1.17816 3.43858 1.21771 2.30745 2.35315C1.17632 3.48858 1.14364 5.02135 1.07826 8.08688C1.05724 9.07257 1.05725 10.0524 1.07827 11.0381Z" stroke="white" stroke-width="2.125" stroke-linejoin="round"/>
<path d="M1.0625 3.5625L7.97552 7.47947C10.5241 8.92351 11.6009 8.92351 14.1495 7.47947L21.0625 3.5625" stroke="white" stroke-width="2.125" stroke-linejoin="round"/>
</svg>
