<svg width="24" height="24" viewBox="0 0 24 24" fill="none" xmlns="http://www.w3.org/2000/svg">
<path d="M19.9922 3H4.00781C3.86719 3 3.73828 3.02734 3.62109 3.08203C3.50391 3.13672 3.39844 3.21094 3.30469 3.30469C3.21094 3.39844 3.13672 3.50391 3.08203 3.62109C3.02734 3.73828 3 3.86719 3 4.00781V19.9922C3 20.1328 3.02734 20.2617 3.08203 20.3789C3.13672 20.4961 3.21094 20.6016 3.30469 20.6953C3.39844 20.7891 3.50391 20.8633 3.62109 20.918C3.73828 20.9727 3.86719 21 4.00781 21H12.6094V14.0391H10.2656V11.3203H12.6094V9.30469C12.6094 8.14844 12.9336 7.26172 13.582 6.64453C14.2305 6.02734 15.0781 5.71875 16.125 5.71875C16.4688 5.71875 16.8164 5.72266 17.168 5.73047C17.5195 5.73828 17.8672 5.77344 18.2109 5.83594V8.25H16.7812C16.2188 8.25 15.8516 8.37109 15.6797 8.61328C15.5078 8.85547 15.4219 9.17969 15.4219 9.58594V11.3203H18.1172L17.7656 14.0391H15.4219V21H19.9922C20.1328 21 20.2617 20.9727 20.3789 20.918C20.4961 20.8633 20.6016 20.7891 20.6953 20.6953C20.7891 20.6016 20.8633 20.4961 20.918 20.3789C20.9727 20.2617 21 20.1328 21 19.9922V4.00781C21 3.86719 20.9727 3.73828 20.918 3.62109C20.8633 3.50391 20.7891 3.39844 20.6953 3.30469C20.6016 3.21094 20.4961 3.13672 20.3789 3.08203C20.2617 3.02734 20.1328 3 19.9922 3Z" fill="#4C1512"/>
</svg>
