<svg width="14" height="14" viewBox="0 0 14 14" fill="none" xmlns="http://www.w3.org/2000/svg">
<path d="M13.2161 0H0.783854C0.674479 0 0.574219 0.0212669 0.483073 0.0638018C0.391927 0.106337 0.309896 0.164062 0.236979 0.236979C0.164062 0.309896 0.106337 0.391927 0.0638021 0.483072C0.0212674 0.574219 0 0.674479 0 0.783854V13.2161C0 13.3255 0.0212674 13.4258 0.0638021 13.5169C0.106337 13.6081 0.164062 13.6901 0.236979 13.763C0.309896 13.8359 0.391927 13.8937 0.483073 13.9362C0.574219 13.9787 0.674479 14 0.783854 14H7.47396V8.58594H5.65104V6.47135H7.47396V4.90365C7.47396 4.00434 7.72613 3.31467 8.23047 2.83463C8.73481 2.3546 9.3941 2.11458 10.2083 2.11458C10.4757 2.11458 10.7461 2.11762 11.0195 2.1237C11.293 2.12977 11.5634 2.15712 11.8307 2.20573V4.08333H10.7188C10.2812 4.08333 9.99566 4.17752 9.86198 4.36588C9.7283 4.55425 9.66146 4.80642 9.66146 5.1224V6.47135H11.7578L11.4844 8.58594H9.66146V14H13.2161C13.3255 14 13.4258 13.9787 13.5169 13.9362C13.6081 13.8937 13.6901 13.8359 13.763 13.763C13.8359 13.6901 13.8937 13.6081 13.9362 13.5169C13.9787 13.4258 14 13.3255 14 13.2161V0.783854C14 0.674479 13.9787 0.574219 13.9362 0.483072C13.8937 0.391927 13.8359 0.309896 13.763 0.236979C13.6901 0.164062 13.6081 0.106337 13.5169 0.0638018C13.4258 0.0212669 13.3255 0 13.2161 0Z" fill="white"/>
</svg>
