<svg width="16" height="16" viewBox="0 0 16 16" fill="none" xmlns="http://www.w3.org/2000/svg">
<path d="M10.8255 2.29427C10.4609 2.28212 10.1328 2.273 9.84115 2.26693C9.54948 2.26085 8.93576 2.25781 8 2.25781C7.06424 2.25781 6.45052 2.26085 6.15885 2.26693C5.86719 2.273 5.53906 2.28212 5.17448 2.29427C4.95573 2.30642 4.73698 2.33073 4.51823 2.36719C4.29948 2.40365 4.08681 2.46441 3.88021 2.54948C3.72222 2.59809 3.57639 2.66797 3.44271 2.75912C3.30903 2.85026 3.18142 2.95052 3.0599 3.0599C2.95052 3.18142 2.85026 3.30903 2.75911 3.44271C2.66797 3.57639 2.59809 3.72222 2.54948 3.88021C2.46441 4.08681 2.40365 4.29948 2.36719 4.51823C2.33073 4.73698 2.30642 4.95573 2.29427 5.17448C2.28212 5.53906 2.273 5.86719 2.26693 6.15885C2.26085 6.45052 2.25781 7.06424 2.25781 8C2.25781 8.93576 2.26085 9.54948 2.26693 9.84115C2.273 10.1328 2.28212 10.4609 2.29427 10.8255C2.30642 11.0443 2.33073 11.263 2.36719 11.4818C2.40365 11.7005 2.46441 11.9132 2.54948 12.1198C2.59809 12.2778 2.66797 12.4236 2.75911 12.5573C2.85026 12.691 2.95052 12.8186 3.0599 12.9401C3.18142 13.0495 3.30903 13.1497 3.44271 13.2409C3.57639 13.332 3.72222 13.4019 3.88021 13.4505C4.08681 13.5356 4.29948 13.5964 4.51823 13.6328C4.73698 13.6693 4.95573 13.6936 5.17448 13.7057C5.53906 13.7179 5.86719 13.727 6.15885 13.7331C6.45052 13.7391 7.06424 13.7422 8 13.7422C8.93576 13.7422 9.54948 13.7391 9.84115 13.7331C10.1328 13.727 10.4609 13.7179 10.8255 13.7057C11.0443 13.6936 11.263 13.6693 11.4818 13.6328C11.7005 13.5964 11.9132 13.5356 12.1198 13.4505C12.2778 13.4019 12.4236 13.332 12.5573 13.2409C12.691 13.1497 12.8186 13.0495 12.9401 12.9401C13.0495 12.8186 13.1497 12.691 13.2409 12.5573C13.332 12.4236 13.4019 12.2778 13.4505 12.1198C13.5356 11.9132 13.5964 11.7005 13.6328 11.4818C13.6693 11.263 13.6936 11.0443 13.7057 10.8255C13.7179 10.4609 13.727 10.1328 13.7331 9.84115C13.7391 9.54948 13.7422 8.93576 13.7422 8C13.7422 7.06424 13.7391 6.45052 13.7331 6.15885C13.727 5.86719 13.7179 5.53906 13.7057 5.17448C13.6936 4.95573 13.6693 4.73698 13.6328 4.51823C13.5964 4.29948 13.5356 4.08681 13.4505 3.88021C13.4019 3.72222 13.332 3.57639 13.2409 3.44271C13.1497 3.30903 13.0495 3.18142 12.9401 3.0599C12.8186 2.95052 12.691 2.85026 12.5573 2.75912C12.4236 2.66797 12.2778 2.59809 12.1198 2.54948C11.9132 2.46441 11.7005 2.40365 11.4818 2.36719C11.263 2.33073 11.0443 2.30642 10.8255 2.29427ZM5.11979 1.03646C5.48438 1.02431 5.81858 1.01519 6.1224 1.00912C6.42622 1.00304 7.05208 1 8 1C8.94792 1 9.57378 1.00304 9.8776 1.00912C10.1814 1.01519 10.5156 1.02431 10.8802 1.03646C11.1719 1.04861 11.4605 1.08203 11.7461 1.13672C12.0317 1.19141 12.3142 1.26736 12.5938 1.36458C12.8247 1.46181 13.0434 1.57726 13.25 1.71094C13.4566 1.84462 13.651 1.99653 13.8333 2.16667C14.0035 2.34896 14.1554 2.5434 14.2891 2.75C14.4227 2.9566 14.5382 3.17535 14.6354 3.40625C14.7326 3.68576 14.8086 3.96832 14.8633 4.25391C14.918 4.5395 14.9514 4.82812 14.9635 5.11979C14.9757 5.48438 14.9848 5.81858 14.9909 6.1224C14.997 6.42622 15 7.05208 15 8C15 8.94792 14.997 9.57378 14.9909 9.8776C14.9848 10.1814 14.9757 10.5156 14.9635 10.8802C14.9514 11.1719 14.918 11.4605 14.8633 11.7461C14.8086 12.0317 14.7326 12.3142 14.6354 12.5938C14.5382 12.8247 14.4227 13.0434 14.2891 13.25C14.1554 13.4566 14.0035 13.651 13.8333 13.8333C13.651 14.0035 13.4566 14.1554 13.25 14.2891C13.0434 14.4227 12.8247 14.5382 12.5938 14.6354C12.3142 14.7326 12.0317 14.8086 11.7461 14.8633C11.4605 14.918 11.1719 14.9514 10.8802 14.9635C10.5156 14.9757 10.1814 14.9848 9.8776 14.9909C9.57378 14.997 8.94792 15 8 15C7.05208 15 6.42622 14.997 6.1224 14.9909C5.81858 14.9848 5.48438 14.9757 5.11979 14.9635C4.82812 14.9514 4.5395 14.918 4.25391 14.8633C3.96832 14.8086 3.68576 14.7326 3.40625 14.6354C3.17535 14.5382 2.9566 14.4227 2.75 14.2891C2.5434 14.1554 2.34896 14.0035 2.16667 13.8333C1.99653 13.651 1.84462 13.4566 1.71094 13.25C1.57726 13.0434 1.46181 12.8247 1.36458 12.5938C1.26736 12.3142 1.19141 12.0317 1.13672 11.7461C1.08203 11.4605 1.04861 11.1719 1.03646 10.8802C1.02431 10.5156 1.01519 10.1814 1.00911 9.8776C1.00304 9.57378 1 8.94792 1 8C1 7.05208 1.00304 6.42622 1.00911 6.1224C1.01519 5.81858 1.02431 5.48438 1.03646 5.11979C1.04861 4.82812 1.08203 4.5395 1.13672 4.25391C1.19141 3.96832 1.26736 3.68576 1.36458 3.40625C1.46181 3.17535 1.57726 2.9566 1.71094 2.75C1.84462 2.5434 1.99653 2.34896 2.16667 2.16667C2.34896 1.99653 2.5434 1.84462 2.75 1.71094C2.9566 1.57726 3.17535 1.46181 3.40625 1.36458C3.68576 1.26736 3.96832 1.19141 4.25391 1.13672C4.5395 1.08203 4.82812 1.04861 5.11979 1.03646ZM11.737 5.10156C11.9679 5.10156 12.1654 5.01953 12.3294 4.85547C12.4935 4.69141 12.5755 4.49392 12.5755 4.26302C12.5755 4.03212 12.4935 3.83464 12.3294 3.67057C12.1654 3.50651 11.9679 3.42448 11.737 3.42448C11.5061 3.42448 11.3086 3.50651 11.1445 3.67057C10.9805 3.83464 10.8984 4.03212 10.8984 4.26302C10.8984 4.49392 10.9805 4.69141 11.1445 4.85547C11.3086 5.01953 11.5061 5.10156 11.737 5.10156ZM8 4.40885C7.64757 4.40885 7.30122 4.4605 6.96094 4.5638C6.62066 4.6671 6.29861 4.81597 5.99479 5.01042C5.70312 5.20486 5.44488 5.44184 5.22005 5.72135C4.99523 6.00087 4.81597 6.30469 4.68229 6.63281C4.54861 6.96094 4.46354 7.30122 4.42708 7.65365C4.39062 8.00608 4.40885 8.35243 4.48177 8.69271C4.54253 9.04514 4.65799 9.37934 4.82812 9.69531C4.99826 10.0113 5.21094 10.2908 5.46615 10.5339C5.7092 10.7891 5.98872 11.0017 6.30469 11.1719C6.62066 11.342 6.95486 11.4575 7.30729 11.5182C7.64757 11.5911 7.99392 11.6094 8.34635 11.5729C8.69878 11.5365 9.03906 11.4514 9.36719 11.3177C9.69531 11.184 9.99913 11.0048 10.2786 10.7799C10.5582 10.5551 10.7951 10.2969 10.9896 10.0052C11.184 9.70139 11.3329 9.37934 11.4362 9.03906C11.5395 8.69878 11.5911 8.35243 11.5911 8C11.5911 7.52604 11.5 7.06727 11.3177 6.6237C11.1354 6.18012 10.8741 5.79427 10.5339 5.46615C10.2057 5.12587 9.81988 4.86458 9.3763 4.68229C8.93273 4.5 8.47396 4.40885 8 4.40885ZM8 10.3333C7.7691 10.3333 7.54427 10.2999 7.32552 10.2331C7.10677 10.1662 6.90017 10.066 6.70573 9.93229C6.51128 9.81076 6.34115 9.66189 6.19531 9.48568C6.04948 9.30946 5.93403 9.11198 5.84896 8.89323C5.75174 8.67448 5.69401 8.45269 5.67578 8.22786C5.65755 8.00304 5.66667 7.77517 5.70312 7.54427C5.75174 7.31337 5.83073 7.09766 5.9401 6.89714C6.04948 6.69662 6.18316 6.51128 6.34115 6.34115C6.51128 6.18316 6.69661 6.04948 6.89714 5.9401C7.09766 5.83073 7.31337 5.75174 7.54427 5.70312C7.77517 5.66667 8.00304 5.65755 8.22786 5.67578C8.45269 5.69401 8.67448 5.75174 8.89323 5.84896C9.11198 5.93403 9.30946 6.04948 9.48568 6.19531C9.66189 6.34115 9.81076 6.51128 9.93229 6.70573C10.066 6.90017 10.1662 7.10677 10.2331 7.32552C10.2999 7.54427 10.3333 7.7691 10.3333 8C10.3333 8.30382 10.2756 8.60156 10.1602 8.89323C10.0447 9.1849 9.8776 9.4401 9.65885 9.65885C9.4401 9.8776 9.1849 10.0447 8.89323 10.1602C8.60156 10.2756 8.30382 10.3333 8 10.3333Z" fill="white"/>
</svg>
