<svg width="24" height="24" viewBox="0 0 24 24" fill="none" xmlns="http://www.w3.org/2000/svg">
<path d="M15.6328 4.66406C15.1641 4.64844 14.7422 4.63672 14.3672 4.62891C13.9922 4.62109 13.2031 4.61719 12 4.61719C10.7969 4.61719 10.0078 4.62109 9.63281 4.62891C9.25781 4.63672 8.83594 4.64844 8.36719 4.66406C8.08594 4.67969 7.80469 4.71094 7.52344 4.75781C7.24219 4.80469 6.96875 4.88281 6.70312 4.99219C6.5 5.05469 6.3125 5.14453 6.14062 5.26172C5.96875 5.37891 5.80469 5.50781 5.64844 5.64844C5.50781 5.80469 5.37891 5.96875 5.26172 6.14062C5.14453 6.3125 5.05469 6.5 4.99219 6.70312C4.88281 6.96875 4.80469 7.24219 4.75781 7.52344C4.71094 7.80469 4.67969 8.08594 4.66406 8.36719C4.64844 8.83594 4.63672 9.25781 4.62891 9.63281C4.62109 10.0078 4.61719 10.7969 4.61719 12C4.61719 13.2031 4.62109 13.9922 4.62891 14.3672C4.63672 14.7422 4.64844 15.1641 4.66406 15.6328C4.67969 15.9141 4.71094 16.1953 4.75781 16.4766C4.80469 16.7578 4.88281 17.0312 4.99219 17.2969C5.05469 17.5 5.14453 17.6875 5.26172 17.8594C5.37891 18.0312 5.50781 18.1953 5.64844 18.3516C5.80469 18.4922 5.96875 18.6211 6.14062 18.7383C6.3125 18.8555 6.5 18.9453 6.70312 19.0078C6.96875 19.1172 7.24219 19.1953 7.52344 19.2422C7.80469 19.2891 8.08594 19.3203 8.36719 19.3359C8.83594 19.3516 9.25781 19.3633 9.63281 19.3711C10.0078 19.3789 10.7969 19.3828 12 19.3828C13.2031 19.3828 13.9922 19.3789 14.3672 19.3711C14.7422 19.3633 15.1641 19.3516 15.6328 19.3359C15.9141 19.3203 16.1953 19.2891 16.4766 19.2422C16.7578 19.1953 17.0312 19.1172 17.2969 19.0078C17.5 18.9453 17.6875 18.8555 17.8594 18.7383C18.0312 18.6211 18.1953 18.4922 18.3516 18.3516C18.4922 18.1953 18.6211 18.0312 18.7383 17.8594C18.8555 17.6875 18.9453 17.5 19.0078 17.2969C19.1172 17.0312 19.1953 16.7578 19.2422 16.4766C19.2891 16.1953 19.3203 15.9141 19.3359 15.6328C19.3516 15.1641 19.3633 14.7422 19.3711 14.3672C19.3789 13.9922 19.3828 13.2031 19.3828 12C19.3828 10.7969 19.3789 10.0078 19.3711 9.63281C19.3633 9.25781 19.3516 8.83594 19.3359 8.36719C19.3203 8.08594 19.2891 7.80469 19.2422 7.52344C19.1953 7.24219 19.1172 6.96875 19.0078 6.70312C18.9453 6.5 18.8555 6.3125 18.7383 6.14062C18.6211 5.96875 18.4922 5.80469 18.3516 5.64844C18.1953 5.50781 18.0312 5.37891 17.8594 5.26172C17.6875 5.14453 17.5 5.05469 17.2969 4.99219C17.0312 4.88281 16.7578 4.80469 16.4766 4.75781C16.1953 4.71094 15.9141 4.67969 15.6328 4.66406ZM8.29688 3.04688C8.76562 3.03125 9.19531 3.01953 9.58594 3.01172C9.97656 3.00391 10.7812 3 12 3C13.2188 3 14.0234 3.00391 14.4141 3.01172C14.8047 3.01953 15.2344 3.03125 15.7031 3.04688C16.0781 3.0625 16.4492 3.10547 16.8164 3.17578C17.1836 3.24609 17.5469 3.34375 17.9062 3.46875C18.2031 3.59375 18.4844 3.74219 18.75 3.91406C19.0156 4.08594 19.2656 4.28125 19.5 4.5C19.7188 4.73438 19.9141 4.98438 20.0859 5.25C20.2578 5.51562 20.4062 5.79688 20.5312 6.09375C20.6562 6.45312 20.7539 6.81641 20.8242 7.18359C20.8945 7.55078 20.9375 7.92188 20.9531 8.29688C20.9688 8.76562 20.9805 9.19531 20.9883 9.58594C20.9961 9.97656 21 10.7812 21 12C21 13.2188 20.9961 14.0234 20.9883 14.4141C20.9805 14.8047 20.9688 15.2344 20.9531 15.7031C20.9375 16.0781 20.8945 16.4492 20.8242 16.8164C20.7539 17.1836 20.6562 17.5469 20.5312 17.9062C20.4062 18.2031 20.2578 18.4844 20.0859 18.75C19.9141 19.0156 19.7188 19.2656 19.5 19.5C19.2656 19.7188 19.0156 19.9141 18.75 20.0859C18.4844 20.2578 18.2031 20.4062 17.9062 20.5312C17.5469 20.6562 17.1836 20.7539 16.8164 20.8242C16.4492 20.8945 16.0781 20.9375 15.7031 20.9531C15.2344 20.9688 14.8047 20.9805 14.4141 20.9883C14.0234 20.9961 13.2188 21 12 21C10.7812 21 9.97656 20.9961 9.58594 20.9883C9.19531 20.9805 8.76562 20.9688 8.29688 20.9531C7.92188 20.9375 7.55078 20.8945 7.18359 20.8242C6.81641 20.7539 6.45312 20.6562 6.09375 20.5312C5.79688 20.4062 5.51562 20.2578 5.25 20.0859C4.98438 19.9141 4.73438 19.7188 4.5 19.5C4.28125 19.2656 4.08594 19.0156 3.91406 18.75C3.74219 18.4844 3.59375 18.2031 3.46875 17.9062C3.34375 17.5469 3.24609 17.1836 3.17578 16.8164C3.10547 16.4492 3.0625 16.0781 3.04688 15.7031C3.03125 15.2344 3.01953 14.8047 3.01172 14.4141C3.00391 14.0234 3 13.2188 3 12C3 10.7812 3.00391 9.97656 3.01172 9.58594C3.01953 9.19531 3.03125 8.76562 3.04688 8.29688C3.0625 7.92188 3.10547 7.55078 3.17578 7.18359C3.24609 6.81641 3.34375 6.45312 3.46875 6.09375C3.59375 5.79688 3.74219 5.51562 3.91406 5.25C4.08594 4.98438 4.28125 4.73438 4.5 4.5C4.73438 4.28125 4.98438 4.08594 5.25 3.91406C5.51562 3.74219 5.79688 3.59375 6.09375 3.46875C6.45312 3.34375 6.81641 3.24609 7.18359 3.17578C7.55078 3.10547 7.92188 3.0625 8.29688 3.04688ZM16.8047 8.27344C17.1016 8.27344 17.3555 8.16797 17.5664 7.95703C17.7773 7.74609 17.8828 7.49219 17.8828 7.19531C17.8828 6.89844 17.7773 6.64453 17.5664 6.43359C17.3555 6.22266 17.1016 6.11719 16.8047 6.11719C16.5078 6.11719 16.2539 6.22266 16.043 6.43359C15.832 6.64453 15.7266 6.89844 15.7266 7.19531C15.7266 7.49219 15.832 7.74609 16.043 7.95703C16.2539 8.16797 16.5078 8.27344 16.8047 8.27344ZM12 7.38281C11.5469 7.38281 11.1016 7.44922 10.6641 7.58203C10.2266 7.71484 9.8125 7.90625 9.42188 8.15625C9.04688 8.40625 8.71484 8.71094 8.42578 9.07031C8.13672 9.42969 7.90625 9.82031 7.73438 10.2422C7.5625 10.6641 7.45312 11.1016 7.40625 11.5547C7.35938 12.0078 7.38281 12.4531 7.47656 12.8906C7.55469 13.3438 7.70312 13.7734 7.92188 14.1797C8.14062 14.5859 8.41406 14.9453 8.74219 15.2578C9.05469 15.5859 9.41406 15.8594 9.82031 16.0781C10.2266 16.2969 10.6562 16.4453 11.1094 16.5234C11.5469 16.6172 11.9922 16.6406 12.4453 16.5938C12.8984 16.5469 13.3359 16.4375 13.7578 16.2656C14.1797 16.0938 14.5703 15.8633 14.9297 15.5742C15.2891 15.2852 15.5938 14.9531 15.8438 14.5781C16.0938 14.1875 16.2852 13.7734 16.418 13.3359C16.5508 12.8984 16.6172 12.4531 16.6172 12C16.6172 11.3906 16.5 10.8008 16.2656 10.2305C16.0312 9.66016 15.6953 9.16406 15.2578 8.74219C14.8359 8.30469 14.3398 7.96875 13.7695 7.73438C13.1992 7.5 12.6094 7.38281 12 7.38281ZM12 15C11.7031 15 11.4141 14.957 11.1328 14.8711C10.8516 14.7852 10.5859 14.6562 10.3359 14.4844C10.0859 14.3281 9.86719 14.1367 9.67969 13.9102C9.49219 13.6836 9.34375 13.4297 9.23438 13.1484C9.10938 12.8672 9.03516 12.582 9.01172 12.293C8.98828 12.0039 9 11.7109 9.04688 11.4141C9.10938 11.1172 9.21094 10.8398 9.35156 10.582C9.49219 10.3242 9.66406 10.0859 9.86719 9.86719C10.0859 9.66406 10.3242 9.49219 10.582 9.35156C10.8398 9.21094 11.1172 9.10938 11.4141 9.04688C11.7109 9 12.0039 8.98828 12.293 9.01172C12.582 9.03516 12.8672 9.10938 13.1484 9.23438C13.4297 9.34375 13.6836 9.49219 13.9102 9.67969C14.1367 9.86719 14.3281 10.0859 14.4844 10.3359C14.6562 10.5859 14.7852 10.8516 14.8711 11.1328C14.957 11.4141 15 11.7031 15 12C15 12.3906 14.9258 12.7734 14.7773 13.1484C14.6289 13.5234 14.4141 13.8516 14.1328 14.1328C13.8516 14.4141 13.5234 14.6289 13.1484 14.7773C12.7734 14.9258 12.3906 15 12 15Z" fill="#4C1512"/>
</svg>
