<svg width="23" height="23" viewBox="0 0 23 23" fill="none" xmlns="http://www.w3.org/2000/svg">
<path d="M2.84012 11.0052C1.8921 9.35212 1.43435 8.0023 1.15834 6.63403C0.750122 4.61039 1.68431 2.63362 3.23188 1.37229C3.88595 0.839199 4.63573 1.02133 5.0225 1.71521L5.89568 3.28172C6.58779 4.52338 6.93384 5.14421 6.8652 5.80241C6.79657 6.4606 6.32987 6.99668 5.39647 8.06882L2.84012 11.0052ZM2.84012 11.0052C4.75901 14.3511 7.77034 17.3641 11.1201 19.2852M11.1201 19.2852C12.7732 20.2332 14.123 20.691 15.4913 20.967C17.5149 21.3752 19.4917 20.441 20.753 18.8934C21.2861 18.2394 21.104 17.4896 20.4101 17.1028L18.8436 16.2296C17.6019 15.5375 16.9811 15.1915 16.3229 15.2601C15.6647 15.3288 15.1286 15.7954 14.0565 16.7288L11.1201 19.2852Z" stroke="white" stroke-width="2.125" stroke-linejoin="round"/>
<path d="M13.0625 5.89467C14.4857 6.49905 15.6263 7.63959 16.2307 9.06282M13.7165 1.06282C17.2537 2.08357 20.0416 4.87134 21.0625 8.40844" stroke="white" stroke-width="2.125" stroke-linecap="round"/>
</svg>
