<svg width="24" height="24" viewBox="0 0 24 24" fill="none" xmlns="http://www.w3.org/2000/svg">
<path d="M22.0547 6.9375C21.9922 6.71875 21.9062 6.51172 21.7969 6.31641C21.6875 6.12109 21.5469 5.9375 21.375 5.76562C21.2188 5.60938 21.0391 5.47266 20.8359 5.35547C20.6328 5.23828 20.4219 5.14844 20.2031 5.08594C19.7969 4.97656 19.1406 4.89062 18.2344 4.82812C17.3281 4.78125 16.4141 4.74219 15.4922 4.71094C14.5703 4.67969 13.7578 4.66406 13.0547 4.66406C12.3516 4.64844 12 4.64062 12 4.64062C12 4.64062 11.6484 4.64844 10.9453 4.66406C10.2422 4.66406 9.42969 4.67969 8.50781 4.71094C7.58594 4.74219 6.67188 4.78125 5.76562 4.82812C4.85938 4.89062 4.20312 4.97656 3.79688 5.08594C3.57812 5.14844 3.36719 5.23828 3.16406 5.35547C2.96094 5.47266 2.78125 5.60938 2.625 5.76562C2.45312 5.9375 2.3125 6.12109 2.20312 6.31641C2.09375 6.51172 2.00781 6.71875 1.94531 6.9375C1.78906 7.78125 1.67578 8.625 1.60547 9.46875C1.53516 10.3125 1.5 11.1562 1.5 12C1.5 12.8438 1.53516 13.6875 1.60547 14.5312C1.67578 15.375 1.78906 16.2188 1.94531 17.0625C2.00781 17.2812 2.09375 17.4883 2.20312 17.6836C2.3125 17.8789 2.45312 18.0625 2.625 18.2344C2.78125 18.3906 2.96094 18.5273 3.16406 18.6445C3.36719 18.7617 3.57812 18.8516 3.79688 18.9141C4.20312 19.0234 4.85938 19.1094 5.76562 19.1719C6.67188 19.2188 7.58594 19.2578 8.50781 19.2891C9.42969 19.3203 10.2422 19.3359 10.9453 19.3359C11.6484 19.3516 12 19.3594 12 19.3594C12 19.3594 12.3516 19.3516 13.0547 19.3359C13.7578 19.3359 14.5703 19.3203 15.4922 19.2891C16.4141 19.2578 17.3281 19.2188 18.2344 19.1719C19.1406 19.1094 19.7969 19.0234 20.2031 18.9141C20.4219 18.8516 20.6328 18.7617 20.8359 18.6445C21.0391 18.5273 21.2188 18.3906 21.375 18.2344C21.5469 18.0625 21.6875 17.8789 21.7969 17.6836C21.9062 17.4883 21.9922 17.2812 22.0547 17.0625C22.2109 16.2188 22.3242 15.375 22.3945 14.5312C22.4648 13.6875 22.5 12.8438 22.5 12C22.5 11.1562 22.4648 10.3125 22.3945 9.46875C22.3242 8.625 22.2109 7.78125 22.0547 6.9375ZM9.89062 15.1406V8.85938L15.3516 12L9.89062 15.1406Z" fill="#4C1512"/>
</svg>
