<svg width="16" height="16" viewBox="0 0 16 16" fill="none" xmlns="http://www.w3.org/2000/svg">
<path d="M14.7031 4.56051C14.6615 4.41189 14.6042 4.27123 14.5312 4.13853C14.4583 4.00584 14.3646 3.8811 14.25 3.76433C14.1458 3.65817 14.026 3.56529 13.8906 3.48567C13.7552 3.40605 13.6146 3.34501 13.4688 3.30255C13.1979 3.22824 12.7604 3.16985 12.1562 3.12739C11.5521 3.09554 10.9427 3.069 10.3281 3.04777C9.71354 3.02654 9.17188 3.01592 8.70312 3.01592C8.23438 3.00531 8 3 8 3C8 3 7.76562 3.00531 7.29688 3.01592C6.82812 3.01592 6.28646 3.02654 5.67188 3.04777C5.05729 3.069 4.44792 3.09554 3.84375 3.12739C3.23958 3.16985 2.80208 3.22824 2.53125 3.30255C2.38542 3.34501 2.24479 3.40605 2.10938 3.48567C1.97396 3.56529 1.85417 3.65817 1.75 3.76433C1.63542 3.8811 1.54167 4.00584 1.46875 4.13853C1.39583 4.27123 1.33854 4.41189 1.29688 4.56051C1.19271 5.13376 1.11719 5.70701 1.07031 6.28025C1.02344 6.8535 1 7.42675 1 8C1 8.57325 1.02344 9.1465 1.07031 9.71975C1.11719 10.293 1.19271 10.8662 1.29688 11.4395C1.33854 11.5881 1.39583 11.7288 1.46875 11.8615C1.54167 11.9942 1.63542 12.1189 1.75 12.2357C1.85417 12.3418 1.97396 12.4347 2.10938 12.5143C2.24479 12.5939 2.38542 12.655 2.53125 12.6975C2.80208 12.7718 3.23958 12.8301 3.84375 12.8726C4.44792 12.9045 5.05729 12.931 5.67188 12.9522C6.28646 12.9735 6.82812 12.9841 7.29688 12.9841C7.76562 12.9947 8 13 8 13C8 13 8.23438 12.9947 8.70312 12.9841C9.17188 12.9841 9.71354 12.9735 10.3281 12.9522C10.9427 12.931 11.5521 12.9045 12.1562 12.8726C12.7604 12.8301 13.1979 12.7718 13.4688 12.6975C13.6146 12.655 13.7552 12.5939 13.8906 12.5143C14.026 12.4347 14.1458 12.3418 14.25 12.2357C14.3646 12.1189 14.4583 11.9942 14.5312 11.8615C14.6042 11.7288 14.6615 11.5881 14.7031 11.4395C14.8073 10.8662 14.8828 10.293 14.9297 9.71975C14.9766 9.1465 15 8.57325 15 8C15 7.42675 14.9766 6.8535 14.9297 6.28025C14.8828 5.70701 14.8073 5.13376 14.7031 4.56051ZM6.59375 10.1338V5.86624L10.2344 8L6.59375 10.1338Z" fill="white"/>
</svg>
